<?xml version="1.0" encoding="utf-8" standalone="no"?>
<!DOCTYPE svg PUBLIC "-//W3C//DTD SVG 1.1//EN"
  "http://www.w3.org/Graphics/SVG/1.1/DTD/svg11.dtd">
<svg xmlns:xlink="http://www.w3.org/1999/xlink" width="893.182812pt" height="392.514375pt" viewBox="0 0 893.182812 392.514375" xmlns="http://www.w3.org/2000/svg" version="1.1">
 <metadata>
  <rdf:RDF xmlns:dc="http://purl.org/dc/elements/1.1/" xmlns:cc="http://creativecommons.org/ns#" xmlns:rdf="http://www.w3.org/1999/02/22-rdf-syntax-ns#">
   <cc:Work>
    <dc:type rdf:resource="http://purl.org/dc/dcmitype/StillImage"/>
    <dc:date>2023-03-01T22:08:13.302860</dc:date>
    <dc:format>image/svg+xml</dc:format>
    <dc:creator>
     <cc:Agent>
      <dc:title>Matplotlib v3.6.3, https://matplotlib.org/</dc:title>
     </cc:Agent>
    </dc:creator>
   </cc:Work>
  </rdf:RDF>
 </metadata>
 <defs>
  <style type="text/css">*{stroke-linejoin: round; stroke-linecap: butt}</style>
 </defs>
 <g id="figure_1">
  <g id="patch_1">
   <path d="M 0 392.514375 
L 893.182812 392.514375 
L 893.182812 0 
L 0 0 
z
"/>
  </g>
  <g id="axes_1">
   <g id="patch_2">
    <path d="M 48.982813 354.958125 
L 885.982813 354.958125 
L 885.982813 22.318125 
L 48.982813 22.318125 
z
"/>
   </g>
   <g id="matplotlib.axis_1">
    <g id="xtick_1">
     <g id="line2d_1">
      <defs>
       <path id="m1db841ce5a" d="M 0 0 
L 0 3.5 
" style="stroke: #ffffff; stroke-width: 0.8"/>
      </defs>
      <g>
       <use xlink:href="#m1db841ce5a" x="87.028267" y="354.958125" style="fill: #ffffff; stroke: #ffffff; stroke-width: 0.8"/>
      </g>
     </g>
     <g id="text_1">
      <!-- 0 -->
      <g style="fill: #ffffff" transform="translate(83.847017 369.556562) scale(0.1 -0.1)">
       <defs>
        <path id="DejaVuSans-30" d="M 2034 4250 
Q 1547 4250 1301 3770 
Q 1056 3291 1056 2328 
Q 1056 1369 1301 889 
Q 1547 409 2034 409 
Q 2525 409 2770 889 
Q 3016 1369 3016 2328 
Q 3016 3291 2770 3770 
Q 2525 4250 2034 4250 
z
M 2034 4750 
Q 2819 4750 3233 4129 
Q 3647 3509 3647 2328 
Q 3647 1150 3233 529 
Q 2819 -91 2034 -91 
Q 1250 -91 836 529 
Q 422 1150 422 2328 
Q 422 3509 836 4129 
Q 1250 4750 2034 4750 
z
" transform="scale(0.015625)"/>
       </defs>
       <use xlink:href="#DejaVuSans-30"/>
      </g>
     </g>
    </g>
    <g id="xtick_2">
     <g id="line2d_2">
      <g>
       <use xlink:href="#m1db841ce5a" x="193.152269" y="354.958125" style="fill: #ffffff; stroke: #ffffff; stroke-width: 0.8"/>
      </g>
     </g>
     <g id="text_2">
      <!-- 100 -->
      <g style="fill: #ffffff" transform="translate(183.608519 369.556562) scale(0.1 -0.1)">
       <defs>
        <path id="DejaVuSans-31" d="M 794 531 
L 1825 531 
L 1825 4091 
L 703 3866 
L 703 4441 
L 1819 4666 
L 2450 4666 
L 2450 531 
L 3481 531 
L 3481 0 
L 794 0 
L 794 531 
z
" transform="scale(0.015625)"/>
       </defs>
       <use xlink:href="#DejaVuSans-31"/>
       <use xlink:href="#DejaVuSans-30" x="63.623047"/>
       <use xlink:href="#DejaVuSans-30" x="127.246094"/>
      </g>
     </g>
    </g>
    <g id="xtick_3">
     <g id="line2d_3">
      <g>
       <use xlink:href="#m1db841ce5a" x="299.27627" y="354.958125" style="fill: #ffffff; stroke: #ffffff; stroke-width: 0.8"/>
      </g>
     </g>
     <g id="text_3">
      <!-- 200 -->
      <g style="fill: #ffffff" transform="translate(289.73252 369.556562) scale(0.1 -0.1)">
       <defs>
        <path id="DejaVuSans-32" d="M 1228 531 
L 3431 531 
L 3431 0 
L 469 0 
L 469 531 
Q 828 903 1448 1529 
Q 2069 2156 2228 2338 
Q 2531 2678 2651 2914 
Q 2772 3150 2772 3378 
Q 2772 3750 2511 3984 
Q 2250 4219 1831 4219 
Q 1534 4219 1204 4116 
Q 875 4013 500 3803 
L 500 4441 
Q 881 4594 1212 4672 
Q 1544 4750 1819 4750 
Q 2544 4750 2975 4387 
Q 3406 4025 3406 3419 
Q 3406 3131 3298 2873 
Q 3191 2616 2906 2266 
Q 2828 2175 2409 1742 
Q 1991 1309 1228 531 
z
" transform="scale(0.015625)"/>
       </defs>
       <use xlink:href="#DejaVuSans-32"/>
       <use xlink:href="#DejaVuSans-30" x="63.623047"/>
       <use xlink:href="#DejaVuSans-30" x="127.246094"/>
      </g>
     </g>
    </g>
    <g id="xtick_4">
     <g id="line2d_4">
      <g>
       <use xlink:href="#m1db841ce5a" x="405.400272" y="354.958125" style="fill: #ffffff; stroke: #ffffff; stroke-width: 0.8"/>
      </g>
     </g>
     <g id="text_4">
      <!-- 300 -->
      <g style="fill: #ffffff" transform="translate(395.856522 369.556562) scale(0.1 -0.1)">
       <defs>
        <path id="DejaVuSans-33" d="M 2597 2516 
Q 3050 2419 3304 2112 
Q 3559 1806 3559 1356 
Q 3559 666 3084 287 
Q 2609 -91 1734 -91 
Q 1441 -91 1130 -33 
Q 819 25 488 141 
L 488 750 
Q 750 597 1062 519 
Q 1375 441 1716 441 
Q 2309 441 2620 675 
Q 2931 909 2931 1356 
Q 2931 1769 2642 2001 
Q 2353 2234 1838 2234 
L 1294 2234 
L 1294 2753 
L 1863 2753 
Q 2328 2753 2575 2939 
Q 2822 3125 2822 3475 
Q 2822 3834 2567 4026 
Q 2313 4219 1838 4219 
Q 1578 4219 1281 4162 
Q 984 4106 628 3988 
L 628 4550 
Q 988 4650 1302 4700 
Q 1616 4750 1894 4750 
Q 2613 4750 3031 4423 
Q 3450 4097 3450 3541 
Q 3450 3153 3228 2886 
Q 3006 2619 2597 2516 
z
" transform="scale(0.015625)"/>
       </defs>
       <use xlink:href="#DejaVuSans-33"/>
       <use xlink:href="#DejaVuSans-30" x="63.623047"/>
       <use xlink:href="#DejaVuSans-30" x="127.246094"/>
      </g>
     </g>
    </g>
    <g id="xtick_5">
     <g id="line2d_5">
      <g>
       <use xlink:href="#m1db841ce5a" x="511.524273" y="354.958125" style="fill: #ffffff; stroke: #ffffff; stroke-width: 0.8"/>
      </g>
     </g>
     <g id="text_5">
      <!-- 400 -->
      <g style="fill: #ffffff" transform="translate(501.980523 369.556562) scale(0.1 -0.1)">
       <defs>
        <path id="DejaVuSans-34" d="M 2419 4116 
L 825 1625 
L 2419 1625 
L 2419 4116 
z
M 2253 4666 
L 3047 4666 
L 3047 1625 
L 3713 1625 
L 3713 1100 
L 3047 1100 
L 3047 0 
L 2419 0 
L 2419 1100 
L 313 1100 
L 313 1709 
L 2253 4666 
z
" transform="scale(0.015625)"/>
       </defs>
       <use xlink:href="#DejaVuSans-34"/>
       <use xlink:href="#DejaVuSans-30" x="63.623047"/>
       <use xlink:href="#DejaVuSans-30" x="127.246094"/>
      </g>
     </g>
    </g>
    <g id="xtick_6">
     <g id="line2d_6">
      <g>
       <use xlink:href="#m1db841ce5a" x="617.648275" y="354.958125" style="fill: #ffffff; stroke: #ffffff; stroke-width: 0.8"/>
      </g>
     </g>
     <g id="text_6">
      <!-- 500 -->
      <g style="fill: #ffffff" transform="translate(608.104525 369.556562) scale(0.1 -0.1)">
       <defs>
        <path id="DejaVuSans-35" d="M 691 4666 
L 3169 4666 
L 3169 4134 
L 1269 4134 
L 1269 2991 
Q 1406 3038 1543 3061 
Q 1681 3084 1819 3084 
Q 2600 3084 3056 2656 
Q 3513 2228 3513 1497 
Q 3513 744 3044 326 
Q 2575 -91 1722 -91 
Q 1428 -91 1123 -41 
Q 819 9 494 109 
L 494 744 
Q 775 591 1075 516 
Q 1375 441 1709 441 
Q 2250 441 2565 725 
Q 2881 1009 2881 1497 
Q 2881 1984 2565 2268 
Q 2250 2553 1709 2553 
Q 1456 2553 1204 2497 
Q 953 2441 691 2322 
L 691 4666 
z
" transform="scale(0.015625)"/>
       </defs>
       <use xlink:href="#DejaVuSans-35"/>
       <use xlink:href="#DejaVuSans-30" x="63.623047"/>
       <use xlink:href="#DejaVuSans-30" x="127.246094"/>
      </g>
     </g>
    </g>
    <g id="xtick_7">
     <g id="line2d_7">
      <g>
       <use xlink:href="#m1db841ce5a" x="723.772276" y="354.958125" style="fill: #ffffff; stroke: #ffffff; stroke-width: 0.8"/>
      </g>
     </g>
     <g id="text_7">
      <!-- 600 -->
      <g style="fill: #ffffff" transform="translate(714.228526 369.556562) scale(0.1 -0.1)">
       <defs>
        <path id="DejaVuSans-36" d="M 2113 2584 
Q 1688 2584 1439 2293 
Q 1191 2003 1191 1497 
Q 1191 994 1439 701 
Q 1688 409 2113 409 
Q 2538 409 2786 701 
Q 3034 994 3034 1497 
Q 3034 2003 2786 2293 
Q 2538 2584 2113 2584 
z
M 3366 4563 
L 3366 3988 
Q 3128 4100 2886 4159 
Q 2644 4219 2406 4219 
Q 1781 4219 1451 3797 
Q 1122 3375 1075 2522 
Q 1259 2794 1537 2939 
Q 1816 3084 2150 3084 
Q 2853 3084 3261 2657 
Q 3669 2231 3669 1497 
Q 3669 778 3244 343 
Q 2819 -91 2113 -91 
Q 1303 -91 875 529 
Q 447 1150 447 2328 
Q 447 3434 972 4092 
Q 1497 4750 2381 4750 
Q 2619 4750 2861 4703 
Q 3103 4656 3366 4563 
z
" transform="scale(0.015625)"/>
       </defs>
       <use xlink:href="#DejaVuSans-36"/>
       <use xlink:href="#DejaVuSans-30" x="63.623047"/>
       <use xlink:href="#DejaVuSans-30" x="127.246094"/>
      </g>
     </g>
    </g>
    <g id="xtick_8">
     <g id="line2d_8">
      <g>
       <use xlink:href="#m1db841ce5a" x="829.896278" y="354.958125" style="fill: #ffffff; stroke: #ffffff; stroke-width: 0.8"/>
      </g>
     </g>
     <g id="text_8">
      <!-- 700 -->
      <g style="fill: #ffffff" transform="translate(820.352528 369.556562) scale(0.1 -0.1)">
       <defs>
        <path id="DejaVuSans-37" d="M 525 4666 
L 3525 4666 
L 3525 4397 
L 1831 0 
L 1172 0 
L 2766 4134 
L 525 4134 
L 525 4666 
z
" transform="scale(0.015625)"/>
       </defs>
       <use xlink:href="#DejaVuSans-37"/>
       <use xlink:href="#DejaVuSans-30" x="63.623047"/>
       <use xlink:href="#DejaVuSans-30" x="127.246094"/>
      </g>
     </g>
    </g>
    <g id="text_9">
     <!-- Interval -->
     <g style="fill: #ffffff" transform="translate(448.334375 383.234687) scale(0.1 -0.1)">
      <defs>
       <path id="DejaVuSans-49" d="M 628 4666 
L 1259 4666 
L 1259 0 
L 628 0 
L 628 4666 
z
" transform="scale(0.015625)"/>
       <path id="DejaVuSans-6e" d="M 3513 2113 
L 3513 0 
L 2938 0 
L 2938 2094 
Q 2938 2591 2744 2837 
Q 2550 3084 2163 3084 
Q 1697 3084 1428 2787 
Q 1159 2491 1159 1978 
L 1159 0 
L 581 0 
L 581 3500 
L 1159 3500 
L 1159 2956 
Q 1366 3272 1645 3428 
Q 1925 3584 2291 3584 
Q 2894 3584 3203 3211 
Q 3513 2838 3513 2113 
z
" transform="scale(0.015625)"/>
       <path id="DejaVuSans-74" d="M 1172 4494 
L 1172 3500 
L 2356 3500 
L 2356 3053 
L 1172 3053 
L 1172 1153 
Q 1172 725 1289 603 
Q 1406 481 1766 481 
L 2356 481 
L 2356 0 
L 1766 0 
Q 1100 0 847 248 
Q 594 497 594 1153 
L 594 3053 
L 172 3053 
L 172 3500 
L 594 3500 
L 594 4494 
L 1172 4494 
z
" transform="scale(0.015625)"/>
       <path id="DejaVuSans-65" d="M 3597 1894 
L 3597 1613 
L 953 1613 
Q 991 1019 1311 708 
Q 1631 397 2203 397 
Q 2534 397 2845 478 
Q 3156 559 3463 722 
L 3463 178 
Q 3153 47 2828 -22 
Q 2503 -91 2169 -91 
Q 1331 -91 842 396 
Q 353 884 353 1716 
Q 353 2575 817 3079 
Q 1281 3584 2069 3584 
Q 2775 3584 3186 3129 
Q 3597 2675 3597 1894 
z
M 3022 2063 
Q 3016 2534 2758 2815 
Q 2500 3097 2075 3097 
Q 1594 3097 1305 2825 
Q 1016 2553 972 2059 
L 3022 2063 
z
" transform="scale(0.015625)"/>
       <path id="DejaVuSans-72" d="M 2631 2963 
Q 2534 3019 2420 3045 
Q 2306 3072 2169 3072 
Q 1681 3072 1420 2755 
Q 1159 2438 1159 1844 
L 1159 0 
L 581 0 
L 581 3500 
L 1159 3500 
L 1159 2956 
Q 1341 3275 1631 3429 
Q 1922 3584 2338 3584 
Q 2397 3584 2469 3576 
Q 2541 3569 2628 3553 
L 2631 2963 
z
" transform="scale(0.015625)"/>
       <path id="DejaVuSans-76" d="M 191 3500 
L 800 3500 
L 1894 563 
L 2988 3500 
L 3597 3500 
L 2284 0 
L 1503 0 
L 191 3500 
z
" transform="scale(0.015625)"/>
       <path id="DejaVuSans-61" d="M 2194 1759 
Q 1497 1759 1228 1600 
Q 959 1441 959 1056 
Q 959 750 1161 570 
Q 1363 391 1709 391 
Q 2188 391 2477 730 
Q 2766 1069 2766 1631 
L 2766 1759 
L 2194 1759 
z
M 3341 1997 
L 3341 0 
L 2766 0 
L 2766 531 
Q 2569 213 2275 61 
Q 1981 -91 1556 -91 
Q 1019 -91 701 211 
Q 384 513 384 1019 
Q 384 1609 779 1909 
Q 1175 2209 1959 2209 
L 2766 2209 
L 2766 2266 
Q 2766 2663 2505 2880 
Q 2244 3097 1772 3097 
Q 1472 3097 1187 3025 
Q 903 2953 641 2809 
L 641 3341 
Q 956 3463 1253 3523 
Q 1550 3584 1831 3584 
Q 2591 3584 2966 3190 
Q 3341 2797 3341 1997 
z
" transform="scale(0.015625)"/>
       <path id="DejaVuSans-6c" d="M 603 4863 
L 1178 4863 
L 1178 0 
L 603 0 
L 603 4863 
z
" transform="scale(0.015625)"/>
      </defs>
      <use xlink:href="#DejaVuSans-49"/>
      <use xlink:href="#DejaVuSans-6e" x="29.492188"/>
      <use xlink:href="#DejaVuSans-74" x="92.871094"/>
      <use xlink:href="#DejaVuSans-65" x="132.080078"/>
      <use xlink:href="#DejaVuSans-72" x="193.603516"/>
      <use xlink:href="#DejaVuSans-76" x="234.716797"/>
      <use xlink:href="#DejaVuSans-61" x="293.896484"/>
      <use xlink:href="#DejaVuSans-6c" x="355.175781"/>
     </g>
    </g>
   </g>
   <g id="matplotlib.axis_2">
    <g id="ytick_1">
     <g id="line2d_9">
      <defs>
       <path id="m5aa408e6b0" d="M 0 0 
L -3.5 0 
" style="stroke: #ffffff; stroke-width: 0.8"/>
      </defs>
      <g>
       <use xlink:href="#m5aa408e6b0" x="48.982813" y="319.519253" style="fill: #ffffff; stroke: #ffffff; stroke-width: 0.8"/>
      </g>
     </g>
     <g id="text_10">
      <!-- −10 -->
      <g style="fill: #ffffff" transform="translate(20.878125 323.318472) scale(0.1 -0.1)">
       <defs>
        <path id="DejaVuSans-2212" d="M 678 2272 
L 4684 2272 
L 4684 1741 
L 678 1741 
L 678 2272 
z
" transform="scale(0.015625)"/>
       </defs>
       <use xlink:href="#DejaVuSans-2212"/>
       <use xlink:href="#DejaVuSans-31" x="83.789062"/>
       <use xlink:href="#DejaVuSans-30" x="147.412109"/>
      </g>
     </g>
    </g>
    <g id="ytick_2">
     <g id="line2d_10">
      <g>
       <use xlink:href="#m5aa408e6b0" x="48.982813" y="246.381776" style="fill: #ffffff; stroke: #ffffff; stroke-width: 0.8"/>
      </g>
     </g>
     <g id="text_11">
      <!-- −5 -->
      <g style="fill: #ffffff" transform="translate(27.240625 250.180995) scale(0.1 -0.1)">
       <use xlink:href="#DejaVuSans-2212"/>
       <use xlink:href="#DejaVuSans-35" x="83.789062"/>
      </g>
     </g>
    </g>
    <g id="ytick_3">
     <g id="line2d_11">
      <g>
       <use xlink:href="#m5aa408e6b0" x="48.982813" y="173.244298" style="fill: #ffffff; stroke: #ffffff; stroke-width: 0.8"/>
      </g>
     </g>
     <g id="text_12">
      <!-- 0 -->
      <g style="fill: #ffffff" transform="translate(35.620313 177.043517) scale(0.1 -0.1)">
       <use xlink:href="#DejaVuSans-30"/>
      </g>
     </g>
    </g>
    <g id="ytick_4">
     <g id="line2d_12">
      <g>
       <use xlink:href="#m5aa408e6b0" x="48.982813" y="100.106821" style="fill: #ffffff; stroke: #ffffff; stroke-width: 0.8"/>
      </g>
     </g>
     <g id="text_13">
      <!-- 5 -->
      <g style="fill: #ffffff" transform="translate(35.620313 103.90604) scale(0.1 -0.1)">
       <use xlink:href="#DejaVuSans-35"/>
      </g>
     </g>
    </g>
    <g id="ytick_5">
     <g id="line2d_13">
      <g>
       <use xlink:href="#m5aa408e6b0" x="48.982813" y="26.969343" style="fill: #ffffff; stroke: #ffffff; stroke-width: 0.8"/>
      </g>
     </g>
     <g id="text_14">
      <!-- 10 -->
      <g style="fill: #ffffff" transform="translate(29.257813 30.768562) scale(0.1 -0.1)">
       <use xlink:href="#DejaVuSans-31"/>
       <use xlink:href="#DejaVuSans-30" x="63.623047"/>
      </g>
     </g>
    </g>
    <g id="text_15">
     <!-- Spread -->
     <g style="fill: #ffffff" transform="translate(14.798438 206.244375) rotate(-90) scale(0.1 -0.1)">
      <defs>
       <path id="DejaVuSans-53" d="M 3425 4513 
L 3425 3897 
Q 3066 4069 2747 4153 
Q 2428 4238 2131 4238 
Q 1616 4238 1336 4038 
Q 1056 3838 1056 3469 
Q 1056 3159 1242 3001 
Q 1428 2844 1947 2747 
L 2328 2669 
Q 3034 2534 3370 2195 
Q 3706 1856 3706 1288 
Q 3706 609 3251 259 
Q 2797 -91 1919 -91 
Q 1588 -91 1214 -16 
Q 841 59 441 206 
L 441 856 
Q 825 641 1194 531 
Q 1563 422 1919 422 
Q 2459 422 2753 634 
Q 3047 847 3047 1241 
Q 3047 1584 2836 1778 
Q 2625 1972 2144 2069 
L 1759 2144 
Q 1053 2284 737 2584 
Q 422 2884 422 3419 
Q 422 4038 858 4394 
Q 1294 4750 2059 4750 
Q 2388 4750 2728 4690 
Q 3069 4631 3425 4513 
z
" transform="scale(0.015625)"/>
       <path id="DejaVuSans-70" d="M 1159 525 
L 1159 -1331 
L 581 -1331 
L 581 3500 
L 1159 3500 
L 1159 2969 
Q 1341 3281 1617 3432 
Q 1894 3584 2278 3584 
Q 2916 3584 3314 3078 
Q 3713 2572 3713 1747 
Q 3713 922 3314 415 
Q 2916 -91 2278 -91 
Q 1894 -91 1617 61 
Q 1341 213 1159 525 
z
M 3116 1747 
Q 3116 2381 2855 2742 
Q 2594 3103 2138 3103 
Q 1681 3103 1420 2742 
Q 1159 2381 1159 1747 
Q 1159 1113 1420 752 
Q 1681 391 2138 391 
Q 2594 391 2855 752 
Q 3116 1113 3116 1747 
z
" transform="scale(0.015625)"/>
       <path id="DejaVuSans-64" d="M 2906 2969 
L 2906 4863 
L 3481 4863 
L 3481 0 
L 2906 0 
L 2906 525 
Q 2725 213 2448 61 
Q 2172 -91 1784 -91 
Q 1150 -91 751 415 
Q 353 922 353 1747 
Q 353 2572 751 3078 
Q 1150 3584 1784 3584 
Q 2172 3584 2448 3432 
Q 2725 3281 2906 2969 
z
M 947 1747 
Q 947 1113 1208 752 
Q 1469 391 1925 391 
Q 2381 391 2643 752 
Q 2906 1113 2906 1747 
Q 2906 2381 2643 2742 
Q 2381 3103 1925 3103 
Q 1469 3103 1208 2742 
Q 947 2381 947 1747 
z
" transform="scale(0.015625)"/>
      </defs>
      <use xlink:href="#DejaVuSans-53"/>
      <use xlink:href="#DejaVuSans-70" x="63.476562"/>
      <use xlink:href="#DejaVuSans-72" x="126.953125"/>
      <use xlink:href="#DejaVuSans-65" x="165.816406"/>
      <use xlink:href="#DejaVuSans-61" x="227.339844"/>
      <use xlink:href="#DejaVuSans-64" x="288.619141"/>
     </g>
    </g>
   </g>
   <g id="line2d_14">
    <path d="M 87.028267 177.881339 
L 88.089507 169.700043 
L 89.150747 190.547574 
L 90.211987 160.936884 
L 91.273227 202.990279 
L 92.334467 199.514975 
L 93.395707 120.848699 
L 94.456947 137.625127 
L 95.518187 189.245939 
L 96.579427 150.801124 
L 97.640667 155.313317 
L 98.701907 178.674339 
L 99.763147 212.524605 
L 100.824387 133.4713 
L 101.885627 174.813515 
L 102.946867 185.429949 
L 104.008107 174.647955 
L 105.069347 166.351025 
L 106.130587 162.447688 
L 107.191827 203.704244 
L 108.253067 159.766561 
L 109.314307 172.213269 
L 110.375547 163.069344 
L 111.436787 198.984432 
L 112.498027 161.39109 
L 113.559267 159.925939 
L 114.620507 100.856592 
L 115.681747 152.949077 
L 116.742987 137.047692 
L 117.804227 135.682001 
L 118.865468 183.361464 
L 119.926708 195.909093 
L 120.987948 152.183881 
L 122.049188 165.939931 
L 124.171668 188.511983 
L 125.232908 175.538766 
L 126.294148 171.200675 
L 127.355388 175.971353 
L 128.416628 173.431473 
L 129.477868 153.846356 
L 130.539108 179.319223 
L 131.600348 141.946078 
L 132.661588 51.195354 
L 133.722828 188.518072 
L 134.784068 177.818148 
L 135.845308 161.757218 
L 136.906548 193.918985 
L 137.967788 192.521734 
L 139.029028 180.915098 
L 140.090268 162.229197 
L 141.151508 172.433288 
L 142.212748 146.050524 
L 143.273988 182.179063 
L 144.335228 184.409748 
L 145.396468 212.345948 
L 146.457708 178.091965 
L 147.518948 171.77288 
L 148.580188 184.57788 
L 149.641428 179.323503 
L 150.702668 153.89031 
L 151.763908 168.594123 
L 152.825148 166.686151 
L 153.886388 188.493134 
L 154.947628 183.217679 
L 156.008868 158.543435 
L 157.070108 166.679058 
L 158.131348 168.811289 
L 159.192588 189.389324 
L 160.253828 161.524888 
L 161.315068 183.060061 
L 162.376308 192.701073 
L 163.437548 212.024029 
L 164.498788 198.783187 
L 165.560028 141.438388 
L 166.621268 189.811868 
L 167.682508 190.595838 
L 168.743748 173.748635 
L 169.804988 339.838125 
L 170.866228 204.011154 
L 171.927468 181.752996 
L 172.988708 192.510605 
L 174.049948 137.988843 
L 175.111188 174.315929 
L 176.172428 132.323261 
L 177.233668 78.279572 
L 178.294908 168.98162 
L 179.356148 200.609255 
L 180.417388 202.456781 
L 181.478628 143.129904 
L 182.539868 204.024101 
L 183.601108 213.276045 
L 184.662348 140.912957 
L 185.723588 201.232855 
L 186.784828 146.489182 
L 188.907309 199.221246 
L 189.968549 181.670936 
L 191.029789 174.207448 
L 192.091029 201.304046 
L 193.152269 233.39132 
L 194.213509 137.268076 
L 195.274749 176.577527 
L 196.335989 113.439584 
L 197.397229 214.306246 
L 198.458469 196.077249 
L 199.519709 151.562106 
L 200.580949 161.081883 
L 201.642189 168.443879 
L 202.703429 135.764483 
L 203.764669 151.595989 
L 204.825909 178.858604 
L 205.887149 171.838579 
L 206.948389 155.697173 
L 208.009629 186.303666 
L 209.070869 175.0609 
L 210.132109 203.126223 
L 211.193349 164.602442 
L 212.254589 163.978195 
L 213.315829 182.902693 
L 214.377069 205.180371 
L 215.438309 218.133134 
L 216.499549 148.420548 
L 217.560789 182.339347 
L 218.622029 149.304549 
L 219.683269 174.193372 
L 220.744509 165.018487 
L 221.805749 166.731477 
L 222.866989 152.1157 
L 223.928229 157.844146 
L 224.989469 184.84617 
L 226.050709 191.843351 
L 227.111949 148.140153 
L 228.173189 121.339021 
L 229.234429 196.266265 
L 230.295669 152.424424 
L 231.356909 209.629972 
L 232.418149 188.744686 
L 233.479389 160.953389 
L 234.540629 161.666619 
L 235.601869 199.487352 
L 236.663109 157.333672 
L 237.724349 172.747905 
L 238.785589 182.615449 
L 239.846829 172.770326 
L 240.908069 168.704032 
L 241.969309 178.084472 
L 243.030549 168.338179 
L 244.091789 179.470776 
L 245.153029 202.586028 
L 246.214269 156.577924 
L 247.275509 180.629799 
L 248.336749 175.279235 
L 249.397989 228.542962 
L 250.459229 146.543669 
L 251.520469 176.14365 
L 252.581709 154.113389 
L 253.642949 187.982014 
L 254.704189 205.293513 
L 255.765429 165.528203 
L 256.826669 177.515605 
L 257.887909 201.204698 
L 258.94915 141.309381 
L 260.01039 141.912419 
L 261.07163 169.220408 
L 262.13287 172.779204 
L 263.19411 180.10811 
L 264.25535 194.160368 
L 265.31659 175.334621 
L 266.37783 178.052725 
L 267.43907 160.857441 
L 268.50031 165.672512 
L 269.56155 171.715572 
L 270.62279 165.492203 
L 271.68403 176.483791 
L 272.74527 172.148734 
L 273.80651 161.525181 
L 274.86775 153.209363 
L 275.92899 187.179216 
L 276.99023 171.048112 
L 278.05147 176.135478 
L 279.11271 187.759942 
L 280.17395 145.8498 
L 281.23519 241.903545 
L 282.29643 159.279331 
L 283.35767 196.579347 
L 284.41891 176.67183 
L 285.48015 134.388328 
L 286.54139 172.46941 
L 287.60263 195.75943 
L 288.66387 244.566015 
L 289.72511 251.486565 
L 290.78635 198.961086 
L 291.84759 290.035134 
L 292.90883 144.851242 
L 293.97007 132.773378 
L 295.03131 193.437038 
L 296.09255 190.201861 
L 297.15379 198.903794 
L 298.21503 171.299528 
L 299.27627 207.655004 
L 300.33751 180.196883 
L 301.39875 145.157641 
L 303.52123 190.121799 
L 304.58247 209.929279 
L 305.64371 160.248182 
L 306.70495 208.832158 
L 307.76619 93.089939 
L 308.82743 175.348107 
L 309.88867 132.888296 
L 310.94991 194.612223 
L 312.01115 165.183737 
L 313.07239 169.399922 
L 314.13363 201.167953 
L 315.19487 185.997679 
L 316.25611 190.406678 
L 317.31735 170.543925 
L 318.37859 199.591174 
L 320.50107 147.262256 
L 321.56231 152.571107 
L 322.62355 165.536613 
L 323.68479 183.892015 
L 324.74603 152.697878 
L 325.80727 180.580462 
L 326.86851 160.136131 
L 327.92975 206.654287 
L 328.990991 154.53061 
L 330.052231 171.307684 
L 331.113471 184.850318 
L 332.174711 162.289187 
L 333.235951 168.310345 
L 334.297191 170.266303 
L 335.358431 196.568497 
L 336.419671 193.846502 
L 337.480911 170.860272 
L 338.542151 171.536393 
L 339.603391 175.245407 
L 340.664631 170.265483 
L 341.725871 186.247004 
L 342.787111 170.994412 
L 343.848351 177.228802 
L 344.909591 161.789787 
L 345.970831 160.392635 
L 347.032071 174.450612 
L 348.093311 196.406353 
L 349.154551 178.642025 
L 350.215791 175.382621 
L 351.277031 158.07289 
L 352.338271 176.614159 
L 353.399511 177.020705 
L 354.460751 169.610194 
L 355.521991 169.951936 
L 356.583231 173.774389 
L 357.644471 172.508279 
L 358.705711 161.839515 
L 359.766951 162.873003 
L 360.828191 171.29302 
L 361.889431 187.068475 
L 362.950671 178.538836 
L 364.011911 178.297343 
L 365.073151 203.415371 
L 366.134391 165.372074 
L 368.256871 175.63051 
L 369.318111 194.368941 
L 370.379351 202.818607 
L 371.440591 188.50437 
L 372.501831 149.61725 
L 373.563071 161.286276 
L 374.624311 192.3215 
L 375.685551 163.94734 
L 378.869271 197.399435 
L 379.930511 121.673585 
L 380.991751 168.679011 
L 382.052991 162.610642 
L 383.114231 164.840759 
L 384.175471 195.674699 
L 385.236711 175.539659 
L 386.297951 149.57847 
L 387.359191 196.465005 
L 388.420431 164.889463 
L 389.481671 177.1753 
L 390.542911 163.463964 
L 391.604151 185.578528 
L 392.665391 163.298868 
L 393.726631 144.506317 
L 394.787871 181.466171 
L 395.849111 163.449005 
L 396.910351 200.443865 
L 397.971592 159.57779 
L 399.032832 183.803245 
L 400.094072 173.980842 
L 401.155312 159.53589 
L 402.216552 171.886426 
L 403.277792 178.680973 
L 404.339032 167.24759 
L 405.400272 188.291708 
L 406.461512 159.774126 
L 407.522752 194.236087 
L 408.583992 175.028957 
L 409.645232 151.207653 
L 410.706472 182.440236 
L 411.767712 195.872575 
L 412.828952 169.28904 
L 413.890192 162.837188 
L 414.951432 180.092415 
L 416.012672 163.750877 
L 417.073912 181.404828 
L 418.135152 157.99664 
L 419.196392 160.633216 
L 420.257632 144.958653 
L 421.318872 166.245792 
L 422.380112 148.731801 
L 423.441352 180.482324 
L 424.502592 145.879414 
L 425.563832 182.410306 
L 426.625072 170.225793 
L 427.686312 209.791172 
L 428.747552 162.002298 
L 429.808792 172.797793 
L 430.870032 185.179287 
L 431.931272 164.759749 
L 432.992512 171.59629 
L 434.053752 181.578904 
L 435.114992 163.100891 
L 436.176232 192.160196 
L 438.298712 145.642951 
L 439.359952 136.105377 
L 440.421192 183.461602 
L 441.482432 175.760515 
L 442.543672 154.708818 
L 443.604912 190.174982 
L 445.727392 168.366136 
L 446.788632 191.580043 
L 447.849872 166.420872 
L 448.911112 180.780288 
L 449.972352 179.193922 
L 451.033592 170.922009 
L 452.094832 187.441659 
L 453.156072 190.515106 
L 454.217312 156.299372 
L 455.278552 167.182679 
L 456.339792 163.522242 
L 457.401032 178.894937 
L 458.462272 173.151252 
L 459.523512 163.742104 
L 460.584752 185.453032 
L 461.645992 178.146847 
L 462.707232 176.450123 
L 463.768472 161.083164 
L 464.829712 176.743688 
L 465.890952 158.549093 
L 466.952192 158.643845 
L 468.013433 165.396832 
L 469.074673 152.447747 
L 470.135913 183.944227 
L 471.197153 178.823901 
L 472.258393 174.543891 
L 473.319633 173.147641 
L 474.380873 176.547904 
L 475.442113 172.337549 
L 476.503353 176.714646 
L 477.564593 157.136485 
L 478.625833 193.499595 
L 479.687073 154.72196 
L 480.748313 195.80543 
L 481.809553 188.186186 
L 482.870793 175.20405 
L 483.932033 169.068985 
L 484.993273 171.475673 
L 486.054513 157.632749 
L 487.115753 160.398819 
L 488.176993 187.526752 
L 489.238233 169.015592 
L 490.299473 188.196672 
L 491.360713 162.817796 
L 492.421953 180.753721 
L 493.483193 163.536118 
L 494.544433 159.729126 
L 495.605673 171.249605 
L 496.666913 193.344373 
L 497.728153 185.206146 
L 498.789393 175.838107 
L 499.850633 173.701123 
L 500.911873 181.189211 
L 501.973113 161.361002 
L 503.034353 151.860341 
L 504.095593 165.598542 
L 505.156833 191.659477 
L 506.218073 89.149485 
L 507.279313 152.786619 
L 508.340553 192.870703 
L 509.401793 161.90197 
L 510.463033 166.067334 
L 511.524273 159.104567 
L 512.585513 187.76565 
L 513.646753 129.211066 
L 514.707993 144.525984 
L 515.769233 175.138984 
L 516.830473 189.552364 
L 517.891713 197.152933 
L 518.952953 178.718425 
L 520.014193 181.976379 
L 521.075433 172.397299 
L 522.136673 254.398195 
L 523.197913 153.161418 
L 524.259153 145.657676 
L 525.320393 142.834957 
L 526.381633 191.937591 
L 527.442873 162.737908 
L 528.504113 157.50087 
L 529.565353 199.150406 
L 530.626593 188.675204 
L 531.687833 167.569224 
L 532.749073 168.214323 
L 533.810313 192.337909 
L 534.871553 163.786844 
L 536.994033 157.565295 
L 538.055274 163.750256 
L 539.116514 186.904686 
L 540.177754 165.85217 
L 541.238994 165.399123 
L 542.300234 160.833954 
L 543.361474 167.37717 
L 544.422714 190.627316 
L 545.483954 180.313172 
L 546.545194 182.103341 
L 547.606434 187.732337 
L 548.667674 177.407533 
L 549.728914 169.011047 
L 550.790154 188.511684 
L 551.851394 165.497831 
L 552.912634 188.548032 
L 553.973874 215.742439 
L 555.035114 155.141363 
L 556.096354 185.505235 
L 557.157594 169.517933 
L 558.218834 165.024279 
L 559.280074 166.740259 
L 560.341314 167.452935 
L 561.402554 176.426585 
L 562.463794 177.648921 
L 563.525034 191.850409 
L 564.586274 189.201201 
L 565.647514 144.350022 
L 566.708754 197.422487 
L 567.769994 169.692462 
L 568.831234 160.368158 
L 569.892474 167.125723 
L 570.953714 180.546331 
L 572.014954 175.654655 
L 573.076194 173.486649 
L 574.137434 185.629835 
L 575.198674 169.582225 
L 576.259914 161.657329 
L 577.321154 164.721994 
L 578.382394 172.094562 
L 579.443634 174.045844 
L 580.504874 183.171695 
L 581.566114 179.587624 
L 582.627354 166.431225 
L 583.688594 176.641443 
L 584.749834 160.970539 
L 585.811074 130.861103 
L 586.872314 68.097897 
L 587.933554 200.032876 
L 588.994794 176.854718 
L 590.056034 122.05877 
L 591.117274 192.767314 
L 592.178514 139.657511 
L 593.239754 156.993725 
L 594.300994 180.996006 
L 595.362234 277.173432 
L 596.423474 196.512991 
L 597.484714 304.364064 
L 598.545954 153.670714 
L 599.607194 131.828644 
L 600.668434 172.348103 
L 601.729674 185.87414 
L 602.790914 190.652938 
L 603.852154 164.748138 
L 604.913394 182.53979 
L 605.974634 173.752614 
L 607.035875 223.496044 
L 608.097115 160.296181 
L 609.158355 141.542179 
L 610.219595 164.972078 
L 611.280835 170.240752 
L 612.342075 183.474605 
L 613.403315 173.178384 
L 614.464555 200.786023 
L 615.525795 158.975358 
L 616.587035 176.274323 
L 617.648275 142.87553 
L 618.709515 163.586309 
L 619.770755 174.755268 
L 620.831995 150.542256 
L 621.893235 174.497521 
L 622.954475 168.860118 
L 624.015715 172.336416 
L 625.076955 166.263632 
L 626.138195 135.267089 
L 627.199435 181.013707 
L 628.260675 165.775757 
L 629.321915 154.05335 
L 630.383155 189.561895 
L 631.444395 169.904245 
L 632.505635 178.651945 
L 633.566875 181.009557 
L 634.628115 196.951305 
L 635.689355 160.371193 
L 636.750595 188.661704 
L 637.811835 200.625361 
L 638.873075 142.844222 
L 639.934315 177.955243 
L 640.995555 148.136408 
L 642.056795 189.225817 
L 643.118035 173.396978 
L 644.179275 140.109545 
L 645.240515 190.338066 
L 646.301755 172.627415 
L 647.362995 179.813624 
L 648.424235 185.194047 
L 649.485475 170.880821 
L 650.546715 175.761743 
L 651.607955 175.744255 
L 652.669195 165.697346 
L 653.730435 175.522122 
L 654.791675 194.450159 
L 655.852915 178.018612 
L 656.914155 171.67349 
L 657.975395 171.48962 
L 659.036635 173.688491 
L 660.097875 171.473808 
L 661.159115 177.966427 
L 662.220355 181.09896 
L 663.281595 202.577466 
L 664.342835 199.536076 
L 665.404075 168.591365 
L 666.465315 161.053048 
L 667.526555 168.657819 
L 668.587795 181.330385 
L 669.649035 158.749208 
L 670.710275 176.576952 
L 671.771515 180.9519 
L 672.832755 173.919167 
L 673.893995 170.22772 
L 674.955235 165.945986 
L 676.016475 152.948619 
L 677.077716 164.992778 
L 678.138956 182.318757 
L 679.200196 174.633183 
L 680.261436 143.925016 
L 681.322676 178.258229 
L 682.383916 157.736448 
L 683.445156 155.609713 
L 684.506396 180.294834 
L 685.567636 179.953175 
L 686.628876 188.606485 
L 687.690116 187.842293 
L 688.751356 169.719896 
L 689.812596 170.616919 
L 690.873836 183.380668 
L 691.935076 162.216889 
L 692.996316 137.723878 
L 694.057556 196.002419 
L 695.118796 166.123687 
L 696.180036 166.165158 
L 697.241276 145.181601 
L 698.302516 172.841121 
L 699.363756 189.858776 
L 700.424996 176.643153 
L 701.486236 186.129411 
L 702.547476 172.805982 
L 703.608716 145.341407 
L 704.669956 183.492285 
L 705.731196 170.406794 
L 706.792436 165.375303 
L 707.853676 175.3962 
L 708.914916 194.367808 
L 709.976156 175.434184 
L 711.037396 176.045416 
L 712.098636 183.975692 
L 713.159876 271.479345 
L 714.221116 153.179027 
L 715.282356 179.228388 
L 716.343596 156.848401 
L 717.404836 188.195647 
L 718.466076 154.023739 
L 719.527316 178.579193 
L 720.588556 214.899521 
L 721.649796 160.356289 
L 722.711036 209.020689 
L 723.772276 144.617218 
L 724.833516 136.344787 
L 725.894756 187.093454 
L 726.955996 172.073281 
L 728.017236 201.347061 
L 729.078476 168.945782 
L 730.139716 182.202695 
L 733.323436 160.244767 
L 734.384676 158.84321 
L 735.445916 190.341856 
L 736.507156 200.235627 
L 737.568396 143.473249 
L 738.629636 190.869205 
L 739.690876 121.114911 
L 740.752116 174.80038 
L 741.813356 165.628376 
L 742.874596 180.442971 
L 743.935836 147.513445 
L 744.997076 165.930711 
L 746.058316 124.658877 
L 747.119557 189.547909 
L 748.180797 155.993942 
L 749.242037 190.112463 
L 751.364517 159.921938 
L 752.425757 159.720156 
L 753.486997 37.438125 
L 754.548237 199.511362 
L 755.609477 196.621064 
L 756.670717 174.825753 
L 757.731957 162.063205 
L 758.793197 163.907437 
L 759.854437 169.476659 
L 760.915677 152.840009 
L 761.976917 180.550486 
L 763.038157 179.091519 
L 764.099397 186.270213 
L 765.160637 174.60289 
L 766.221877 168.583274 
L 767.283117 149.354466 
L 768.344357 184.057934 
L 769.405597 174.725688 
L 770.466837 113.146579 
L 771.528077 185.425464 
L 772.589317 195.295891 
L 773.650557 184.084099 
L 774.711797 183.741931 
L 775.773037 184.095085 
L 776.834277 176.05477 
L 777.895517 162.839794 
L 778.956757 162.596187 
L 780.017997 168.327616 
L 781.079237 188.185507 
L 782.140477 177.558749 
L 783.201717 183.021387 
L 784.262957 178.544809 
L 785.324197 135.541883 
L 786.385437 198.620393 
L 787.446677 176.963058 
L 788.507917 192.611342 
L 789.569157 194.029515 
L 790.630397 159.800823 
L 791.691637 164.45449 
L 792.752877 177.272945 
L 793.814117 182.254164 
L 794.875357 154.76462 
L 795.936597 191.994845 
L 796.997837 190.515986 
L 798.059077 154.771485 
L 799.120317 158.04037 
L 800.181557 172.968804 
L 801.242797 218.660326 
L 802.304037 167.098206 
L 803.365277 153.900904 
L 804.426517 159.997 
L 805.487757 167.763652 
L 806.548997 189.45111 
L 807.610237 153.854491 
L 808.671477 178.385329 
L 809.732717 176.137269 
L 810.793957 184.397202 
L 811.855197 165.582753 
L 812.916437 173.361077 
L 813.977677 190.90192 
L 815.038917 174.579453 
L 816.100157 179.224719 
L 817.161398 302.41295 
L 818.222638 139.781411 
L 819.283878 181.615347 
L 820.345118 168.774725 
L 821.406358 186.258186 
L 822.467598 171.533473 
L 823.528838 141.456293 
L 824.590078 157.9527 
L 825.651318 165.715713 
L 826.712558 179.570328 
L 827.773798 204.816112 
L 828.835038 165.270016 
L 829.896278 154.801138 
L 830.957518 167.545156 
L 832.018758 167.490941 
L 833.079998 144.514577 
L 834.141238 176.827101 
L 835.202478 167.151484 
L 836.263718 142.593571 
L 837.324958 182.250895 
L 838.386198 199.145307 
L 839.447438 163.220183 
L 840.508678 203.87317 
L 841.569918 200.218201 
L 842.631158 166.995875 
L 843.692398 167.471252 
L 844.753638 168.554792 
L 845.814878 198.132153 
L 846.876118 171.991866 
L 847.937358 187.717218 
L 847.937358 187.717218 
" clip-path="url(#pc6dc03eef8)" style="fill: none; stroke: #ffffff; stroke-opacity: 0.9; stroke-width: 0.7; stroke-linecap: square"/>
   </g>
   <g id="line2d_15">
    <path d="M 87.028267 173.349228 
L 104.008107 173.039122 
L 126.294148 172.687933 
L 146.457708 172.636968 
L 159.192588 172.784652 
L 175.111188 173.207037 
L 198.458469 174.086724 
L 212.254589 174.777444 
L 227.111949 175.751239 
L 254.704189 177.693208 
L 266.37783 178.260828 
L 276.99023 178.542447 
L 285.48015 178.566248 
L 292.90883 178.37643 
L 301.39875 177.915812 
L 316.25611 176.855382 
L 335.358431 175.520819 
L 362.950671 173.890297 
L 383.114231 173.156605 
L 399.032832 172.509854 
L 414.951432 171.825542 
L 431.931272 171.394242 
L 449.972352 171.221945 
L 463.768472 171.256904 
L 480.748313 171.551745 
L 507.279313 172.283899 
L 552.912634 173.594065 
L 565.647514 173.674988 
L 584.749834 173.493582 
L 608.097115 173.345391 
L 630.383155 173.454159 
L 648.424235 173.837476 
L 667.526555 174.154707 
L 686.628876 174.133271 
L 701.486236 173.968161 
L 720.588556 173.507793 
L 750.303277 172.745016 
L 765.160637 172.569559 
L 776.834277 172.657764 
L 792.752877 173.011903 
L 804.426517 173.194156 
L 808.671477 173.19701 
L 809.732717 173.016959 
L 810.793957 173.042682 
L 811.855197 173.776598 
L 812.916437 173.97024 
L 813.977677 171.897314 
L 815.038917 171.384428 
L 816.100157 177.618127 
L 817.161398 170.351422 
L 818.222638 173.901111 
L 819.283878 173.262236 
L 838.386198 173.437043 
L 846.876118 173.374215 
L 846.876118 173.374215 
" clip-path="url(#pc6dc03eef8)" style="fill: none; stroke: #008000; stroke-width: 1.5; stroke-linecap: square"/>
   </g>
   <g id="line2d_16">
    <path d="M 87.028267 146.877448 
L 104.008107 146.567342 
L 126.294148 146.216152 
L 146.457708 146.165188 
L 159.192588 146.312871 
L 175.111188 146.735257 
L 198.458469 147.614944 
L 212.254589 148.305663 
L 227.111949 149.279458 
L 254.704189 151.221428 
L 266.37783 151.789047 
L 276.99023 152.070667 
L 285.48015 152.094468 
L 292.90883 151.90465 
L 301.39875 151.444032 
L 316.25611 150.383601 
L 335.358431 149.049039 
L 362.950671 147.418516 
L 383.114231 146.684824 
L 399.032832 146.038073 
L 414.951432 145.353762 
L 431.931272 144.922461 
L 449.972352 144.750164 
L 463.768472 144.785123 
L 480.748313 145.079965 
L 507.279313 145.812119 
L 552.912634 147.122285 
L 565.647514 147.203208 
L 584.749834 147.021801 
L 608.097115 146.87361 
L 630.383155 146.982378 
L 648.424235 147.365695 
L 667.526555 147.682926 
L 686.628876 147.661491 
L 701.486236 147.496381 
L 720.588556 147.036013 
L 750.303277 146.273236 
L 765.160637 146.097779 
L 776.834277 146.185984 
L 792.752877 146.540123 
L 804.426517 146.722376 
L 808.671477 146.72523 
L 809.732717 146.545179 
L 810.793957 146.570902 
L 811.855197 147.304818 
L 812.916437 147.498459 
L 813.977677 145.425533 
L 815.038917 144.912647 
L 816.100157 151.146347 
L 817.161398 143.879641 
L 818.222638 147.42933 
L 819.283878 146.790455 
L 838.386198 146.965262 
L 846.876118 146.902434 
L 846.876118 146.902434 
" clip-path="url(#pc6dc03eef8)" style="fill: none; stroke: #0000ff; stroke-linecap: square"/>
   </g>
   <g id="line2d_17">
    <path d="M 87.028267 199.821009 
L 104.008107 199.510902 
L 126.294148 199.159713 
L 146.457708 199.108748 
L 159.192588 199.256432 
L 175.111188 199.678818 
L 198.458469 200.558504 
L 212.254589 201.249224 
L 227.111949 202.223019 
L 254.704189 204.164988 
L 266.37783 204.732608 
L 276.99023 205.014228 
L 285.48015 205.038029 
L 292.90883 204.848211 
L 301.39875 204.387592 
L 316.25611 203.327162 
L 335.358431 201.992599 
L 362.950671 200.362077 
L 383.114231 199.628385 
L 399.032832 198.981634 
L 414.951432 198.297323 
L 431.931272 197.866022 
L 449.972352 197.693725 
L 463.768472 197.728684 
L 480.748313 198.023526 
L 507.279313 198.75568 
L 552.912634 200.065846 
L 565.647514 200.146769 
L 584.749834 199.965362 
L 608.097115 199.817171 
L 630.383155 199.925939 
L 648.424235 200.309256 
L 667.526555 200.626487 
L 686.628876 200.605051 
L 701.486236 200.439942 
L 720.588556 199.979573 
L 750.303277 199.216797 
L 765.160637 199.04134 
L 776.834277 199.129544 
L 792.752877 199.483683 
L 804.426517 199.665937 
L 808.671477 199.668791 
L 809.732717 199.48874 
L 810.793957 199.514462 
L 811.855197 200.248379 
L 812.916437 200.44202 
L 813.977677 198.369094 
L 815.038917 197.856208 
L 816.100157 204.089908 
L 817.161398 196.823202 
L 818.222638 200.372891 
L 819.283878 199.734016 
L 838.386198 199.908823 
L 846.876118 199.845995 
L 846.876118 199.845995 
" clip-path="url(#pc6dc03eef8)" style="fill: none; stroke: #0000ff; stroke-linecap: square"/>
   </g>
   <g id="patch_3">
    <path d="M 48.982813 354.958125 
L 48.982813 22.318125 
" style="fill: none; stroke: #ffffff; stroke-width: 0.8; stroke-linejoin: miter; stroke-linecap: square"/>
   </g>
   <g id="patch_4">
    <path d="M 885.982813 354.958125 
L 885.982813 22.318125 
" style="fill: none; stroke: #ffffff; stroke-width: 0.8; stroke-linejoin: miter; stroke-linecap: square"/>
   </g>
   <g id="patch_5">
    <path d="M 48.982813 354.958125 
L 885.982812 354.958125 
" style="fill: none; stroke: #ffffff; stroke-width: 0.8; stroke-linejoin: miter; stroke-linecap: square"/>
   </g>
   <g id="patch_6">
    <path d="M 48.982813 22.318125 
L 885.982812 22.318125 
" style="fill: none; stroke: #ffffff; stroke-width: 0.8; stroke-linejoin: miter; stroke-linecap: square"/>
   </g>
   <g id="text_16">
    <!-- Filtered Spread of XBTUSD and ETHUSD -->
    <g style="fill: #ffffff" transform="translate(348.022813 16.318125) scale(0.12 -0.12)">
     <defs>
      <path id="DejaVuSans-46" d="M 628 4666 
L 3309 4666 
L 3309 4134 
L 1259 4134 
L 1259 2759 
L 3109 2759 
L 3109 2228 
L 1259 2228 
L 1259 0 
L 628 0 
L 628 4666 
z
" transform="scale(0.015625)"/>
      <path id="DejaVuSans-69" d="M 603 3500 
L 1178 3500 
L 1178 0 
L 603 0 
L 603 3500 
z
M 603 4863 
L 1178 4863 
L 1178 4134 
L 603 4134 
L 603 4863 
z
" transform="scale(0.015625)"/>
      <path id="DejaVuSans-20" transform="scale(0.015625)"/>
      <path id="DejaVuSans-6f" d="M 1959 3097 
Q 1497 3097 1228 2736 
Q 959 2375 959 1747 
Q 959 1119 1226 758 
Q 1494 397 1959 397 
Q 2419 397 2687 759 
Q 2956 1122 2956 1747 
Q 2956 2369 2687 2733 
Q 2419 3097 1959 3097 
z
M 1959 3584 
Q 2709 3584 3137 3096 
Q 3566 2609 3566 1747 
Q 3566 888 3137 398 
Q 2709 -91 1959 -91 
Q 1206 -91 779 398 
Q 353 888 353 1747 
Q 353 2609 779 3096 
Q 1206 3584 1959 3584 
z
" transform="scale(0.015625)"/>
      <path id="DejaVuSans-66" d="M 2375 4863 
L 2375 4384 
L 1825 4384 
Q 1516 4384 1395 4259 
Q 1275 4134 1275 3809 
L 1275 3500 
L 2222 3500 
L 2222 3053 
L 1275 3053 
L 1275 0 
L 697 0 
L 697 3053 
L 147 3053 
L 147 3500 
L 697 3500 
L 697 3744 
Q 697 4328 969 4595 
Q 1241 4863 1831 4863 
L 2375 4863 
z
" transform="scale(0.015625)"/>
      <path id="DejaVuSans-58" d="M 403 4666 
L 1081 4666 
L 2241 2931 
L 3406 4666 
L 4084 4666 
L 2584 2425 
L 4184 0 
L 3506 0 
L 2194 1984 
L 872 0 
L 191 0 
L 1856 2491 
L 403 4666 
z
" transform="scale(0.015625)"/>
      <path id="DejaVuSans-42" d="M 1259 2228 
L 1259 519 
L 2272 519 
Q 2781 519 3026 730 
Q 3272 941 3272 1375 
Q 3272 1813 3026 2020 
Q 2781 2228 2272 2228 
L 1259 2228 
z
M 1259 4147 
L 1259 2741 
L 2194 2741 
Q 2656 2741 2882 2914 
Q 3109 3088 3109 3444 
Q 3109 3797 2882 3972 
Q 2656 4147 2194 4147 
L 1259 4147 
z
M 628 4666 
L 2241 4666 
Q 2963 4666 3353 4366 
Q 3744 4066 3744 3513 
Q 3744 3084 3544 2831 
Q 3344 2578 2956 2516 
Q 3422 2416 3680 2098 
Q 3938 1781 3938 1306 
Q 3938 681 3513 340 
Q 3088 0 2303 0 
L 628 0 
L 628 4666 
z
" transform="scale(0.015625)"/>
      <path id="DejaVuSans-54" d="M -19 4666 
L 3928 4666 
L 3928 4134 
L 2272 4134 
L 2272 0 
L 1638 0 
L 1638 4134 
L -19 4134 
L -19 4666 
z
" transform="scale(0.015625)"/>
      <path id="DejaVuSans-55" d="M 556 4666 
L 1191 4666 
L 1191 1831 
Q 1191 1081 1462 751 
Q 1734 422 2344 422 
Q 2950 422 3222 751 
Q 3494 1081 3494 1831 
L 3494 4666 
L 4128 4666 
L 4128 1753 
Q 4128 841 3676 375 
Q 3225 -91 2344 -91 
Q 1459 -91 1007 375 
Q 556 841 556 1753 
L 556 4666 
z
" transform="scale(0.015625)"/>
      <path id="DejaVuSans-44" d="M 1259 4147 
L 1259 519 
L 2022 519 
Q 2988 519 3436 956 
Q 3884 1394 3884 2338 
Q 3884 3275 3436 3711 
Q 2988 4147 2022 4147 
L 1259 4147 
z
M 628 4666 
L 1925 4666 
Q 3281 4666 3915 4102 
Q 4550 3538 4550 2338 
Q 4550 1131 3912 565 
Q 3275 0 1925 0 
L 628 0 
L 628 4666 
z
" transform="scale(0.015625)"/>
      <path id="DejaVuSans-45" d="M 628 4666 
L 3578 4666 
L 3578 4134 
L 1259 4134 
L 1259 2753 
L 3481 2753 
L 3481 2222 
L 1259 2222 
L 1259 531 
L 3634 531 
L 3634 0 
L 628 0 
L 628 4666 
z
" transform="scale(0.015625)"/>
      <path id="DejaVuSans-48" d="M 628 4666 
L 1259 4666 
L 1259 2753 
L 3553 2753 
L 3553 4666 
L 4184 4666 
L 4184 0 
L 3553 0 
L 3553 2222 
L 1259 2222 
L 1259 0 
L 628 0 
L 628 4666 
z
" transform="scale(0.015625)"/>
     </defs>
     <use xlink:href="#DejaVuSans-46"/>
     <use xlink:href="#DejaVuSans-69" x="50.269531"/>
     <use xlink:href="#DejaVuSans-6c" x="78.052734"/>
     <use xlink:href="#DejaVuSans-74" x="105.835938"/>
     <use xlink:href="#DejaVuSans-65" x="145.044922"/>
     <use xlink:href="#DejaVuSans-72" x="206.568359"/>
     <use xlink:href="#DejaVuSans-65" x="245.431641"/>
     <use xlink:href="#DejaVuSans-64" x="306.955078"/>
     <use xlink:href="#DejaVuSans-20" x="370.431641"/>
     <use xlink:href="#DejaVuSans-53" x="402.21875"/>
     <use xlink:href="#DejaVuSans-70" x="465.695312"/>
     <use xlink:href="#DejaVuSans-72" x="529.171875"/>
     <use xlink:href="#DejaVuSans-65" x="568.035156"/>
     <use xlink:href="#DejaVuSans-61" x="629.558594"/>
     <use xlink:href="#DejaVuSans-64" x="690.837891"/>
     <use xlink:href="#DejaVuSans-20" x="754.314453"/>
     <use xlink:href="#DejaVuSans-6f" x="786.101562"/>
     <use xlink:href="#DejaVuSans-66" x="847.283203"/>
     <use xlink:href="#DejaVuSans-20" x="882.488281"/>
     <use xlink:href="#DejaVuSans-58" x="914.275391"/>
     <use xlink:href="#DejaVuSans-42" x="982.78125"/>
     <use xlink:href="#DejaVuSans-54" x="1051.384766"/>
     <use xlink:href="#DejaVuSans-55" x="1112.46875"/>
     <use xlink:href="#DejaVuSans-53" x="1185.662109"/>
     <use xlink:href="#DejaVuSans-44" x="1249.138672"/>
     <use xlink:href="#DejaVuSans-20" x="1326.140625"/>
     <use xlink:href="#DejaVuSans-61" x="1357.927734"/>
     <use xlink:href="#DejaVuSans-6e" x="1419.207031"/>
     <use xlink:href="#DejaVuSans-64" x="1482.585938"/>
     <use xlink:href="#DejaVuSans-20" x="1546.0625"/>
     <use xlink:href="#DejaVuSans-45" x="1577.849609"/>
     <use xlink:href="#DejaVuSans-54" x="1641.033203"/>
     <use xlink:href="#DejaVuSans-48" x="1702.117188"/>
     <use xlink:href="#DejaVuSans-55" x="1777.3125"/>
     <use xlink:href="#DejaVuSans-53" x="1850.505859"/>
     <use xlink:href="#DejaVuSans-44" x="1913.982422"/>
    </g>
   </g>
   <g id="legend_1">
    <g id="patch_7">
     <path d="M 747.696875 349.958125 
L 878.982812 349.958125 
Q 880.982812 349.958125 880.982812 347.958125 
L 880.982812 304.92375 
Q 880.982812 302.92375 878.982812 302.92375 
L 747.696875 302.92375 
Q 745.696875 302.92375 745.696875 304.92375 
L 745.696875 347.958125 
Q 745.696875 349.958125 747.696875 349.958125 
z
" style="opacity: 0.8; stroke: #cccccc; stroke-linejoin: miter"/>
    </g>
    <g id="line2d_18">
     <path d="M 749.696875 311.022187 
L 759.696875 311.022187 
L 769.696875 311.022187 
" style="fill: none; stroke: #ffffff; stroke-opacity: 0.9; stroke-width: 0.7; stroke-linecap: square"/>
    </g>
    <g id="text_17">
     <!-- Johansen Signal -->
     <g style="fill: #ffffff" transform="translate(777.696875 314.522187) scale(0.1 -0.1)">
      <defs>
       <path id="DejaVuSans-4a" d="M 628 4666 
L 1259 4666 
L 1259 325 
Q 1259 -519 939 -900 
Q 619 -1281 -91 -1281 
L -331 -1281 
L -331 -750 
L -134 -750 
Q 284 -750 456 -515 
Q 628 -281 628 325 
L 628 4666 
z
" transform="scale(0.015625)"/>
       <path id="DejaVuSans-68" d="M 3513 2113 
L 3513 0 
L 2938 0 
L 2938 2094 
Q 2938 2591 2744 2837 
Q 2550 3084 2163 3084 
Q 1697 3084 1428 2787 
Q 1159 2491 1159 1978 
L 1159 0 
L 581 0 
L 581 4863 
L 1159 4863 
L 1159 2956 
Q 1366 3272 1645 3428 
Q 1925 3584 2291 3584 
Q 2894 3584 3203 3211 
Q 3513 2838 3513 2113 
z
" transform="scale(0.015625)"/>
       <path id="DejaVuSans-73" d="M 2834 3397 
L 2834 2853 
Q 2591 2978 2328 3040 
Q 2066 3103 1784 3103 
Q 1356 3103 1142 2972 
Q 928 2841 928 2578 
Q 928 2378 1081 2264 
Q 1234 2150 1697 2047 
L 1894 2003 
Q 2506 1872 2764 1633 
Q 3022 1394 3022 966 
Q 3022 478 2636 193 
Q 2250 -91 1575 -91 
Q 1294 -91 989 -36 
Q 684 19 347 128 
L 347 722 
Q 666 556 975 473 
Q 1284 391 1588 391 
Q 1994 391 2212 530 
Q 2431 669 2431 922 
Q 2431 1156 2273 1281 
Q 2116 1406 1581 1522 
L 1381 1569 
Q 847 1681 609 1914 
Q 372 2147 372 2553 
Q 372 3047 722 3315 
Q 1072 3584 1716 3584 
Q 2034 3584 2315 3537 
Q 2597 3491 2834 3397 
z
" transform="scale(0.015625)"/>
       <path id="DejaVuSans-67" d="M 2906 1791 
Q 2906 2416 2648 2759 
Q 2391 3103 1925 3103 
Q 1463 3103 1205 2759 
Q 947 2416 947 1791 
Q 947 1169 1205 825 
Q 1463 481 1925 481 
Q 2391 481 2648 825 
Q 2906 1169 2906 1791 
z
M 3481 434 
Q 3481 -459 3084 -895 
Q 2688 -1331 1869 -1331 
Q 1566 -1331 1297 -1286 
Q 1028 -1241 775 -1147 
L 775 -588 
Q 1028 -725 1275 -790 
Q 1522 -856 1778 -856 
Q 2344 -856 2625 -561 
Q 2906 -266 2906 331 
L 2906 616 
Q 2728 306 2450 153 
Q 2172 0 1784 0 
Q 1141 0 747 490 
Q 353 981 353 1791 
Q 353 2603 747 3093 
Q 1141 3584 1784 3584 
Q 2172 3584 2450 3431 
Q 2728 3278 2906 2969 
L 2906 3500 
L 3481 3500 
L 3481 434 
z
" transform="scale(0.015625)"/>
      </defs>
      <use xlink:href="#DejaVuSans-4a"/>
      <use xlink:href="#DejaVuSans-6f" x="29.492188"/>
      <use xlink:href="#DejaVuSans-68" x="90.673828"/>
      <use xlink:href="#DejaVuSans-61" x="154.052734"/>
      <use xlink:href="#DejaVuSans-6e" x="215.332031"/>
      <use xlink:href="#DejaVuSans-73" x="278.710938"/>
      <use xlink:href="#DejaVuSans-65" x="330.810547"/>
      <use xlink:href="#DejaVuSans-6e" x="392.333984"/>
      <use xlink:href="#DejaVuSans-20" x="455.712891"/>
      <use xlink:href="#DejaVuSans-53" x="487.5"/>
      <use xlink:href="#DejaVuSans-69" x="550.976562"/>
      <use xlink:href="#DejaVuSans-67" x="578.759766"/>
      <use xlink:href="#DejaVuSans-6e" x="642.236328"/>
      <use xlink:href="#DejaVuSans-61" x="705.615234"/>
      <use xlink:href="#DejaVuSans-6c" x="766.894531"/>
     </g>
    </g>
    <g id="line2d_19">
     <path d="M 749.696875 325.700312 
L 759.696875 325.700312 
L 769.696875 325.700312 
" style="fill: none; stroke: #008000; stroke-width: 1.5; stroke-linecap: square"/>
    </g>
    <g id="text_18">
     <!-- Decomposed Signal -->
     <g style="fill: #ffffff" transform="translate(777.696875 329.200312) scale(0.1 -0.1)">
      <defs>
       <path id="DejaVuSans-63" d="M 3122 3366 
L 3122 2828 
Q 2878 2963 2633 3030 
Q 2388 3097 2138 3097 
Q 1578 3097 1268 2742 
Q 959 2388 959 1747 
Q 959 1106 1268 751 
Q 1578 397 2138 397 
Q 2388 397 2633 464 
Q 2878 531 3122 666 
L 3122 134 
Q 2881 22 2623 -34 
Q 2366 -91 2075 -91 
Q 1284 -91 818 406 
Q 353 903 353 1747 
Q 353 2603 823 3093 
Q 1294 3584 2113 3584 
Q 2378 3584 2631 3529 
Q 2884 3475 3122 3366 
z
" transform="scale(0.015625)"/>
       <path id="DejaVuSans-6d" d="M 3328 2828 
Q 3544 3216 3844 3400 
Q 4144 3584 4550 3584 
Q 5097 3584 5394 3201 
Q 5691 2819 5691 2113 
L 5691 0 
L 5113 0 
L 5113 2094 
Q 5113 2597 4934 2840 
Q 4756 3084 4391 3084 
Q 3944 3084 3684 2787 
Q 3425 2491 3425 1978 
L 3425 0 
L 2847 0 
L 2847 2094 
Q 2847 2600 2669 2842 
Q 2491 3084 2119 3084 
Q 1678 3084 1418 2786 
Q 1159 2488 1159 1978 
L 1159 0 
L 581 0 
L 581 3500 
L 1159 3500 
L 1159 2956 
Q 1356 3278 1631 3431 
Q 1906 3584 2284 3584 
Q 2666 3584 2933 3390 
Q 3200 3197 3328 2828 
z
" transform="scale(0.015625)"/>
      </defs>
      <use xlink:href="#DejaVuSans-44"/>
      <use xlink:href="#DejaVuSans-65" x="77.001953"/>
      <use xlink:href="#DejaVuSans-63" x="138.525391"/>
      <use xlink:href="#DejaVuSans-6f" x="193.505859"/>
      <use xlink:href="#DejaVuSans-6d" x="254.6875"/>
      <use xlink:href="#DejaVuSans-70" x="352.099609"/>
      <use xlink:href="#DejaVuSans-6f" x="415.576172"/>
      <use xlink:href="#DejaVuSans-73" x="476.757812"/>
      <use xlink:href="#DejaVuSans-65" x="528.857422"/>
      <use xlink:href="#DejaVuSans-64" x="590.380859"/>
      <use xlink:href="#DejaVuSans-20" x="653.857422"/>
      <use xlink:href="#DejaVuSans-53" x="685.644531"/>
      <use xlink:href="#DejaVuSans-69" x="749.121094"/>
      <use xlink:href="#DejaVuSans-67" x="776.904297"/>
      <use xlink:href="#DejaVuSans-6e" x="840.380859"/>
      <use xlink:href="#DejaVuSans-61" x="903.759766"/>
      <use xlink:href="#DejaVuSans-6c" x="965.039062"/>
     </g>
    </g>
    <g id="line2d_20">
     <path d="M 749.696875 340.378437 
L 759.696875 340.378437 
L 769.696875 340.378437 
" style="fill: none; stroke: #0000ff; stroke-linecap: square"/>
    </g>
    <g id="text_19">
     <!-- Bounds -->
     <g style="fill: #ffffff" transform="translate(777.696875 343.878437) scale(0.1 -0.1)">
      <defs>
       <path id="DejaVuSans-75" d="M 544 1381 
L 544 3500 
L 1119 3500 
L 1119 1403 
Q 1119 906 1312 657 
Q 1506 409 1894 409 
Q 2359 409 2629 706 
Q 2900 1003 2900 1516 
L 2900 3500 
L 3475 3500 
L 3475 0 
L 2900 0 
L 2900 538 
Q 2691 219 2414 64 
Q 2138 -91 1772 -91 
Q 1169 -91 856 284 
Q 544 659 544 1381 
z
M 1991 3584 
L 1991 3584 
z
" transform="scale(0.015625)"/>
      </defs>
      <use xlink:href="#DejaVuSans-42"/>
      <use xlink:href="#DejaVuSans-6f" x="68.603516"/>
      <use xlink:href="#DejaVuSans-75" x="129.785156"/>
      <use xlink:href="#DejaVuSans-6e" x="193.164062"/>
      <use xlink:href="#DejaVuSans-64" x="256.542969"/>
      <use xlink:href="#DejaVuSans-73" x="320.019531"/>
     </g>
    </g>
   </g>
  </g>
 </g>
 <defs>
  <clipPath id="pc6dc03eef8">
   <rect x="48.982813" y="22.318125" width="837" height="332.64"/>
  </clipPath>
 </defs>
</svg>
